<?xml version="1.0" encoding="UTF-8"?>
<svg width="22px" height="16px" viewBox="0 0 22 16" version="1.1" xmlns="http://www.w3.org/2000/svg" xmlns:xlink="http://www.w3.org/1999/xlink">
    <title>eye</title>
    <g id="Login" stroke="none" stroke-width="1" fill="none" fill-rule="evenodd">
        <g id="Login---Account" transform="translate(-451.000000, -468.000000)">
            <g id="login" transform="translate(132.000000, 224.000000)">
                <g id="password__field" transform="translate(48.000000, 202.000000)">
                    <g id="eye" transform="translate(270.000000, 38.000000)">
                        <path d="M16.7490775,5.19797078 C18.4944649,6.05855388 20.1180812,7.26337021 21.701107,8.85544891 C22.5129151,9.67300285 23,10.7917609 23,11.9965772 C23,13.1583644 22.5535055,14.2771224 21.7416974,15.0946764 C20.8487085,15.9552595 19.9151292,16.7728134 18.9409594,17.4612799 C17.3173432,18.6230671 15.7343173,19.3545627 14.0701107,19.7418251 C13.3800738,19.9139417 12.6900369,20 12,20 C10.4575646,20 8.87453876,19.5697085 7.25092249,18.7951837 C5.7755495,18.0954922 4.04021373,16.8446371 2.5067124,15.3438756 L2.29889299,15.1377055 C1.44649447,14.3201516 1,13.2444227 1,12.0396064 C1,10.8778192 1.44649447,9.71603203 2.25830258,8.89847809 L2.51786549,8.63623119 C3.72061901,7.43881251 5.39776053,6.02145978 7.77859778,4.93979585 C10.7416974,3.60589206 13.7859779,3.69195037 16.7490775,5.19797078 Z M8.78974951,6.68031317 L8.60586465,6.76068287 C6.67289276,7.63887224 5.17085853,8.77748538 3.67749444,10.3076958 C3.25636602,10.7318049 3,11.3788738 3,12.0396064 C3,12.7085288 3.23069278,13.2601954 3.717133,13.7275299 C5.12483863,15.1432858 6.76581499,16.3516094 8.11203488,16.9900561 C9.53161622,17.6672487 10.8202256,18 12,18 C12.5256084,18 13.0531672,17.9342052 13.6168199,17.7938704 C15.032743,17.4643838 16.3755343,16.8376995 17.7866787,15.8279899 C18.5949948,15.2567358 19.4314005,14.5435538 20.3225056,13.6854587 C20.7539255,13.2509852 21,12.642314 21,11.9965772 C21,11.3456841 20.740332,10.726328 20.282867,10.2656245 C18.8415306,8.81604551 17.3946893,7.74619343 15.8428903,6.9808967 C13.4814246,5.78066181 11.1351023,5.683633 8.78974951,6.68031317 Z M12,7 C14.7614237,7 17,9.23857625 17,12 C17,14.7614237 14.7614237,17 12,17 C9.23857625,17 7,14.7614237 7,12 C7,9.23857625 9.23857625,7 12,7 Z M12,9 C10.3431458,9 9,10.3431458 9,12 C9,13.6568542 10.3431458,15 12,15 C13.6568542,15 15,13.6568542 15,12 C15,10.3431458 13.6568542,9 12,9 Z" id="icon" fill="#A7B2C3"></path>
                        <rect id="container" x="0" y="0" width="24" height="24"></rect>
                    </g>
                </g>
            </g>
        </g>
    </g>
</svg>