<svg xmlns="http://www.w3.org/2000/svg" width="160" height="36" viewBox="0 0 160 36">
    <g fill="none" fill-rule="evenodd">
        <path d="M0 0H160V36H0z"/>
        <path fill="#09F" d="M49.62 12.019c3.664 0 6.619 2.943 6.619 6.594 0 3.65-2.955 6.594-6.62 6.594S43 22.264 43 18.613c0-3.651 2.954-6.594 6.62-6.594zm-.02 11.959c2.974 0 5.292-2.422 5.292-5.365s-2.318-5.365-5.291-5.365c-2.955 0-5.273 2.422-5.273 5.365s2.318 5.365 5.273 5.365zm23.044-11.699h-1.44l-5.03 10.99-5.03-10.99h-1.458l5.871 12.76h1.234l5.853-12.76zm6.084 1.211h7.498v-1.21H77.4v12.666h8.826v-1.21h-7.498v-4.471h6.75v-1.23h-6.75V13.49zm17.527 6.855h-3.16v4.601h-1.328V12.28h4.731c2.861 0 4.843 1.547 4.843 4.043 0 2.067-1.384 3.502-3.515 3.911l4.076 4.713h-1.664l-3.983-4.6zm-3.16-1.21h3.366c2.075 0 3.553-1.062 3.553-2.813 0-1.77-1.478-2.832-3.553-2.832h-3.366v5.644zm13.638-6.856h4.432c2.917 0 4.861 1.677 4.861 4.192 0 2.589-2 4.303-5.03 4.303h-2.935v4.172h-1.328V12.28zm1.328 7.284h3.048c2.169 0 3.608-1.248 3.608-3.092 0-1.789-1.44-2.98-3.608-2.98h-3.048v6.072zm19.977 1.695h-6.676l-1.645 3.688h-1.421l5.777-12.76h1.253l5.778 12.76h-1.421l-1.645-3.688zm-.543-1.21l-2.804-6.278-2.787 6.277h5.591zM140.068 12c-2.693 0-4.507 1.453-4.507 3.632 0 1.714 1.178 2.888 3.515 3.316l2.207.429c1.645.298 2.393 1.099 2.393 2.16 0 1.51-1.29 2.497-3.328 2.497-2.337 0-3.721-1.155-4.039-3.13H135c.3 2.738 2.244 4.322 5.292 4.322 2.842 0 4.73-1.528 4.73-3.838 0-1.807-1.27-2.868-3.533-3.297l-1.926-.372c-1.683-.298-2.6-1.006-2.6-2.161 0-1.472 1.272-2.403 3.198-2.403 2.132 0 3.254 1.006 3.553 2.552h1.309c-.318-2.496-2.375-3.707-4.955-3.707zm14.89 0c-2.692 0-4.506 1.453-4.506 3.632 0 1.714 1.178 2.888 3.515 3.316l2.207.429c1.645.298 2.393 1.099 2.393 2.16 0 1.51-1.29 2.497-3.328 2.497-2.337 0-3.721-1.155-4.04-3.13h-1.308c.3 2.738 2.244 4.322 5.292 4.322 2.842 0 4.73-1.528 4.73-3.838 0-1.807-1.271-2.868-3.534-3.297l-1.926-.372c-1.682-.298-2.599-1.006-2.599-2.161 0-1.472 1.272-2.403 3.198-2.403 2.131 0 3.253 1.006 3.553 2.552h1.308C159.596 13.21 157.54 12 154.958 12zM14.5 31C8.16 31 3 25.803 3 19.29c0-.216.17-.29.38-.29h22.24c.21 0 .38.074.38.29C26 25.803 20.841 31 14.5 31m0-27C6.492 4 0 10.492 0 18.5S6.492 33 14.5 33 29 26.508 29 18.5 22.508 4 14.5 4"/>
    </g>
</svg>
